<?xml version="1.0" standalone="no"?>
<!DOCTYPE svg PUBLIC "-//W3C//DTD SVG 20010904//EN"
 "http://www.w3.org/TR/2001/REC-SVG-20010904/DTD/svg10.dtd">
<svg version="1.0" xmlns="http://www.w3.org/2000/svg"
 width="700.000000pt" height="700.000000pt" viewBox="0 0 700.000000 700.000000"
 preserveAspectRatio="xMidYMid meet">
<metadata>
Created by potrace 1.14, written by Peter Selinger 2001-2017
</metadata>
<g transform="translate(0.000000,700.000000) scale(0.100000,-0.100000)"
fill="#000000" stroke="none">
<path d="M3397 6994 c-1 -1 -38 -5 -82 -8 -44 -3 -100 -8 -125 -12 -87 -12
-304 -63 -355 -83 -11 -5 -54 -21 -95 -36 -556 -206 -1016 -660 -1240 -1223
-37 -95 -94 -280 -105 -342 -41 -235 -45 -275 -45 -465 1 -184 8 -259 39 -417
10 -49 17 -88 17 -88 -1 0 -32 11 -69 24 -101 35 -161 24 -225 -42 -103 -107
-119 -376 -40 -672 44 -168 135 -357 235 -492 143 -193 265 -291 362 -291 25
0 52 2 60 4 11 3 17 -10 23 -51 48 -328 172 -617 373 -870 50 -63 182 -199
224 -231 20 -15 20 -16 -14 -48 -49 -46 -77 -98 -125 -236 -88 -251 -167 -369
-307 -461 -70 -46 -96 -84 -97 -146 -1 -52 1 -50 -71 -63 -38 -7 -386 -62
-445 -70 -117 -16 -116 -16 -290 -46 -339 -57 -571 -166 -770 -359 -56 -53
-146 -171 -183 -237 l-18 -33 3451 0 3451 0 -15 28 c-8 15 -40 61 -71 101
-139 180 -307 304 -535 395 -170 68 -339 115 -615 171 -462 94 -541 112 -531
122 9 9 -20 56 -62 98 -21 22 -80 81 -131 130 -148 143 -202 238 -242 420 -23
105 -36 140 -75 192 -20 26 -22 33 -10 40 33 19 157 146 227 233 88 110 203
309 260 451 36 91 78 229 99 329 11 52 22 105 25 116 4 19 12 21 58 21 106 -1
217 86 377 298 78 103 202 359 225 465 2 8 13 58 26 110 30 128 33 366 6 452
-50 158 -156 224 -282 177 -55 -21 -69 -23 -61 -11 5 8 24 112 32 177 2 17 8
62 13 100 9 70 7 427 -3 475 -3 14 -8 41 -10 60 -6 41 -12 75 -28 150 -6 30
-12 60 -14 66 -6 33 -60 199 -85 261 -107 269 -270 520 -470 723 -65 66 -97
95 -209 191 -61 52 -256 173 -365 228 -146 72 -276 121 -415 156 -115 29 -115
29 -180 40 -25 4 -52 9 -61 10 -64 12 -403 27 -412 19z"/>
</g>
</svg>
